<svg width="124" height="30" viewBox="0 0 124 30" fill="none" xmlns="http://www.w3.org/2000/svg">
<g clip-path="url(#clip0_1616_188280)">
<path d="M7.50219 29.4944C6.88195 29.5216 6.28868 29.44 5.6954 29.1953C3.4841 28.3252 2.43239 25.7694 1.78518 23.4312C-0.183421 16.3076 -0.614894 8.66744 0.949196 1.43512C1.0301 1.08166 1.13797 0.701009 1.4346 0.565063C1.65034 0.456306 1.89304 0.510684 2.10878 0.537873C2.94476 0.673819 3.75377 0.809765 4.58975 0.945711C5.02122 1.02728 5.4527 1.10885 5.80327 1.38074C6.61228 2.00609 6.45048 3.28398 6.26171 4.28998C5.72237 7.22642 5.50663 10.4347 5.66843 13.3984C5.74934 14.921 5.99204 16.2532 6.26171 17.7486C6.50441 19.0809 6.69318 20.5763 7.20556 21.827C7.28646 22.0173 7.36736 22.2077 7.55613 22.3164C7.9067 22.5339 8.33817 22.2077 8.60785 21.8814C10.3607 19.8966 11.4933 17.4224 13.0035 15.2472C14.5136 13.0721 16.5901 11.0601 19.1789 10.7338C20.9048 10.5163 22.6577 11.0873 24.0869 12.0933C25.5162 13.1265 26.6218 14.5675 27.4848 16.1173C28.6444 18.238 29.5343 20.7938 31.6377 21.8542C33.5794 22.833 36.0873 22.0989 37.5705 20.4676C39.0537 18.8362 39.6739 16.4979 39.6469 14.2412C39.6469 13.3984 39.62 12.3924 40.2942 11.903C40.6178 11.6583 41.0492 11.6311 41.4537 11.5767C42.1818 11.5223 42.91 11.4679 43.6381 11.3864C44.0695 11.3592 44.5819 11.332 44.9055 11.6311C45.2022 11.903 45.2831 12.338 45.337 12.7458C45.9033 17.7214 44.0695 23.0505 40.1863 26.0413C36.303 29.005 30.3972 29.0865 26.8106 25.7423C24.4645 23.5671 23.3319 20.3588 21.4711 17.7214C21.1206 17.232 20.6891 16.7426 20.1228 16.6883C19.3138 16.5795 18.6666 17.3952 18.2081 18.1021C16.9946 19.9781 15.7811 21.827 14.5406 23.7031C13.4889 25.3072 12.4102 26.9386 10.927 28.0805C9.9562 28.8962 8.71571 29.4128 7.50219 29.4944Z" fill="#175CFF"/>
<path d="M116.53 28.3255C120.225 28.3255 122.706 26.3679 123.703 23.2411H120.386C119.766 24.6821 118.418 25.5522 116.53 25.5522C113.672 25.5522 111.865 23.7577 111.73 20.8213H123.892C123.946 20.1415 124 19.7065 124 19.2715C124 14.323 121.061 11.1963 116.287 11.1963C111.514 11.1963 108.521 14.459 108.521 19.6793C108.521 24.9268 111.703 28.3255 116.53 28.3255ZM111.703 18.2655C111.838 15.6553 113.564 13.8336 116.26 13.8336C119.092 13.8336 120.683 15.6281 120.683 18.1023V18.2655H111.703Z" fill="#0A083B"/>
<path d="M98.1655 27.8359H101.402V17.8575C101.402 15.6824 102.238 14.5404 104.233 14.5404H107.604V11.6855H104.53C102.642 11.6855 101.429 12.6915 101.024 14.2957V11.6855H98.1655V27.8359Z" fill="#0A083B"/>
<path d="M91.3967 27.8089H94.6058V11.6585H91.7473V13.9152C90.6686 12.2023 88.673 11.1963 86.1651 11.1963C81.6077 11.1963 78.4525 14.6221 78.4525 19.7337C78.4525 24.8453 81.5807 28.2983 86.1651 28.2983C88.5112 28.2983 90.3989 27.4282 91.3967 25.7969V27.8089ZM81.7964 19.7337C81.7964 16.4166 83.765 14.1599 86.6775 14.1599C89.5899 14.1599 91.4776 16.4166 91.4776 19.7337C91.4776 23.0508 89.5899 25.3619 86.6775 25.3619C83.765 25.3619 81.7964 23.1052 81.7964 19.7337Z" fill="#0A083B"/>
<path d="M58.0924 27.8359H61.8948L65.5084 15.3833L69.068 27.8359H72.8704L77.8593 11.6855H74.4884L70.9018 24.2198L67.3421 11.6855H63.6477L60.061 24.2198L56.5014 11.6855H53.1305L58.0924 27.8359Z" fill="#0A083B"/>
</g>
<defs>
<clipPath id="clip0_1616_188280">
<rect width="124" height="29" fill="white" transform="translate(0 0.5)"/>
</clipPath>
</defs>
</svg>
